<svg width="28" height="28" viewBox="0 0 28 28" fill="none" xmlns="http://www.w3.org/2000/svg">
<rect width="28" height="28" rx="14" fill="#08090C"/>
<path d="M20.3194 9.81869C19.1634 8.92268 17.7763 8.4747 16.312 8.40002L16.0808 8.62404C17.3909 8.92268 18.5469 9.52 19.6258 10.3413C18.3157 9.66935 16.8515 9.22137 15.3102 9.07202C14.8478 8.99735 14.4625 8.99735 14.0001 8.99735C13.5377 8.99735 13.1524 8.99735 12.69 9.07202C11.1487 9.22137 9.68449 9.66935 8.37441 10.3413C9.45328 9.52 10.6093 8.92268 11.9194 8.62404L11.6882 8.40002C10.2239 8.4747 8.83677 8.92268 7.68083 9.81869C6.37074 12.208 5.67716 14.896 5.6001 17.6587C6.75604 18.8534 8.37441 19.6 10.0698 19.6C10.0698 19.6 10.6093 19.0027 10.9946 18.48C9.99277 18.256 9.06799 17.7333 8.45148 16.912C8.99092 17.2107 9.53035 17.5094 10.0698 17.7333C10.7634 18.032 11.457 18.1814 12.1506 18.3307C12.7671 18.4053 13.3836 18.48 14.0001 18.48C14.6166 18.48 15.2331 18.4053 15.8496 18.3307C16.5432 18.1814 17.2368 18.032 17.9304 17.7333C18.4698 17.5094 19.0093 17.2107 19.5487 16.912C18.9322 17.7333 18.0074 18.256 17.0056 18.48C17.3909 19.0027 17.9304 19.6 17.9304 19.6C19.6258 19.6 21.2442 18.8534 22.4001 17.6587C22.323 14.896 21.6294 12.208 20.3194 9.81869ZM11.457 16.3147C10.6863 16.3147 9.99277 15.6427 9.99277 14.8214C9.99277 14 10.6863 13.328 11.457 13.328C12.2276 13.328 12.9212 14 12.9212 14.8214C12.9212 15.6427 12.2276 16.3147 11.457 16.3147ZM16.5432 16.3147C15.7725 16.3147 15.079 15.6427 15.079 14.8214C15.079 14 15.7725 13.328 16.5432 13.328C17.3138 13.328 18.0074 14 18.0074 14.8214C18.0074 15.6427 17.3138 16.3147 16.5432 16.3147Z" fill="white"/>
</svg>
