<svg width="28" height="28" viewBox="0 0 28 28" fill="none" xmlns="http://www.w3.org/2000/svg">
<rect width="28" height="28" rx="14" fill="#08090C"/>
<path d="M21.4202 10.43C20.9302 10.64 20.3702 10.78 19.8102 10.85C20.3702 10.5 20.8602 9.93998 21.0702 9.30998C20.5102 9.65998 19.9502 9.86998 19.2502 10.01C18.7602 9.44998 17.9902 9.09998 17.2202 9.09998C15.6802 9.09998 14.4202 10.36 14.4202 11.9C14.4202 12.11 14.4202 12.32 14.4902 12.53C12.1802 12.39 10.0802 11.27 8.68019 9.58997C8.47019 10.01 8.33019 10.5 8.33019 10.99C8.33019 11.97 8.82019 12.81 9.59019 13.3C9.10019 13.3 8.68019 13.16 8.33019 12.95C8.33019 14.28 9.31019 15.47 10.5702 15.68C10.3602 15.75 10.0802 15.75 9.8002 15.75C9.5902 15.75 9.45019 15.75 9.24019 15.68C9.59019 16.8 10.6402 17.64 11.9002 17.64C10.9202 18.41 9.7302 18.83 8.4002 18.83C8.1902 18.83 7.9802 18.83 7.7002 18.76C8.9602 19.53 10.4302 20.02 12.0402 20.02C17.2202 20.02 20.0202 15.75 20.0202 12.04V11.69C20.5802 11.48 21.0702 10.99 21.4202 10.43Z" fill="white"/>
</svg>
