<svg width="36" height="36" viewBox="0 0 36 36" fill="none" xmlns="http://www.w3.org/2000/svg">
<path d="M27.0002 12C27.0002 11.2044 27.3162 10.4413 27.8788 9.87868C28.4414 9.31607 29.2045 9 30.0002 9C30.7958 9 31.5589 9.31607 32.1215 9.87868C32.6841 10.4413 33.0002 11.2044 33.0002 12V21C33.0002 24.1826 31.7359 27.2348 29.4854 29.4853C27.235 31.7357 24.1828 33 21.0002 33H18.0002C13.8002 33 11.2502 31.71 9.01515 29.49L3.61515 24.09C3.09906 23.5184 2.82254 22.7702 2.84284 22.0004C2.86315 21.2306 3.17872 20.498 3.72424 19.9544C4.26975 19.4109 5.00341 19.0979 5.77331 19.0803C6.54322 19.0627 7.2904 19.3419 7.86015 19.86L10.5002 22.5" stroke="#08090C" stroke-width="3" stroke-linecap="round" stroke-linejoin="round"/>
<path d="M27 16.5V9C27 8.20435 26.6839 7.44129 26.1213 6.87868C25.5587 6.31607 24.7956 6 24 6C23.2044 6 22.4413 6.31607 21.8787 6.87868C21.3161 7.44129 21 8.20435 21 9" stroke="#08090C" stroke-width="3" stroke-linecap="round" stroke-linejoin="round"/>
<path d="M21 15V6C21 5.20435 20.6839 4.44129 20.1213 3.87868C19.5587 3.31607 18.7956 3 18 3C17.2044 3 16.4413 3.31607 15.8787 3.87868C15.3161 4.44129 15 5.20435 15 6V9" stroke="#08090C" stroke-width="3" stroke-linecap="round" stroke-linejoin="round"/>
<path d="M15 15.75V9C15 8.20435 14.6839 7.44129 14.1213 6.87868C13.5587 6.31607 12.7956 6 12 6C11.2044 6 10.4413 6.31607 9.87868 6.87868C9.31607 7.44129 9 8.20435 9 9V21" stroke="#08090C" stroke-width="3" stroke-linecap="round" stroke-linejoin="round"/>
</svg>
