<svg width="20" height="20" viewBox="0 0 20 20" fill="none" xmlns="http://www.w3.org/2000/svg">
<path d="M7.5 4.16663V7.49996" stroke="#919AB6" stroke-width="1.5" stroke-linecap="round" stroke-linejoin="round"/>
<path d="M8.3335 7.5H6.66683C6.20659 7.5 5.8335 7.8731 5.8335 8.33333V11.6667C5.8335 12.1269 6.20659 12.5 6.66683 12.5H8.3335C8.79373 12.5 9.16683 12.1269 9.16683 11.6667V8.33333C9.16683 7.8731 8.79373 7.5 8.3335 7.5Z" stroke="#919AB6" stroke-width="1.5" stroke-linecap="round" stroke-linejoin="round"/>
<path d="M7.5 12.5V14.1667" stroke="#919AB6" stroke-width="1.5" stroke-linecap="round" stroke-linejoin="round"/>
<path d="M14.1665 2.5V4.16667" stroke="#919AB6" stroke-width="1.5" stroke-linecap="round" stroke-linejoin="round"/>
<path d="M15 4.16663H13.3333C12.8731 4.16663 12.5 4.53972 12.5 4.99996V9.99996C12.5 10.4602 12.8731 10.8333 13.3333 10.8333H15C15.4602 10.8333 15.8333 10.4602 15.8333 9.99996V4.99996C15.8333 4.53972 15.4602 4.16663 15 4.16663Z" stroke="#919AB6" stroke-width="1.5" stroke-linecap="round" stroke-linejoin="round"/>
<path d="M14.1665 10.8334V13.3334" stroke="#919AB6" stroke-width="1.5" stroke-linecap="round" stroke-linejoin="round"/>
<path d="M2.5 2.5V15.8333C2.5 16.2754 2.67559 16.6993 2.98816 17.0118C3.30072 17.3244 3.72464 17.5 4.16667 17.5H17.5" stroke="#919AB6" stroke-width="1.5" stroke-linecap="round" stroke-linejoin="round"/>
</svg>
