<svg width="28" height="28" viewBox="0 0 28 28" fill="none" xmlns="http://www.w3.org/2000/svg">
<rect width="28" height="28" rx="14" fill="white"/>
<path d="M18.667 17.3333V9.33333C18.667 8.97971 18.5265 8.64057 18.2765 8.39052C18.0264 8.14048 17.6873 8 17.3337 8H8.66699" stroke="#08090C" stroke-width="2" stroke-linecap="round" stroke-linejoin="round"/>
<path d="M11.333 20H19.333C19.6866 20 20.0258 19.8595 20.2758 19.6095C20.5259 19.3594 20.6663 19.0203 20.6663 18.6667V18C20.6663 17.8232 20.5961 17.6536 20.4711 17.5286C20.3461 17.4036 20.1765 17.3333 19.9997 17.3333H13.333C13.1562 17.3333 12.9866 17.4036 12.8616 17.5286C12.7366 17.6536 12.6663 17.8232 12.6663 18V18.6667C12.6663 19.0203 12.5259 19.3594 12.2758 19.6095C12.0258 19.8595 11.6866 20 11.333 20ZM11.333 20C10.9794 20 10.6402 19.8595 10.3902 19.6095C10.1402 19.3594 9.99967 19.0203 9.99967 18.6667V9.33333C9.99967 8.97971 9.8592 8.64057 9.60915 8.39052C9.3591 8.14048 9.01996 8 8.66634 8C8.31272 8 7.97358 8.14048 7.72353 8.39052C7.47348 8.64057 7.33301 8.97971 7.33301 9.33333V10.6667C7.33301 10.8435 7.40325 11.013 7.52827 11.1381C7.65329 11.2631 7.82286 11.3333 7.99967 11.3333H9.99967" stroke="#08090C" stroke-width="2" stroke-linecap="round" stroke-linejoin="round"/>
</svg>
