<svg width="12" height="12" viewBox="0 0 12 12" fill="none" xmlns="http://www.w3.org/2000/svg">
<path d="M11.9286 9.17139L9.95087 11.3505C9.90732 11.3973 9.85504 11.4347 9.79712 11.4602C9.73921 11.4858 9.67685 11.4992 9.61381 11.4995H0.238646C0.192598 11.5027 0.146693 11.4913 0.107255 11.4666C0.0678148 11.442 0.0367773 11.4055 0.0184176 11.362C5.81122e-05 11.3185 -0.00472166 11.2703 0.00473699 11.2239C0.0141954 11.1775 0.037427 11.1353 0.0712323 11.103L2.04672 8.92621C2.08982 8.87864 2.14197 8.8407 2.19996 8.81467C2.25793 8.78866 2.3205 8.77514 2.38378 8.77498H11.7589C11.8052 8.77117 11.8514 8.78224 11.8912 8.80665C11.9311 8.83107 11.9625 8.86762 11.9811 8.91122C11.9998 8.95481 12.0048 9.00329 11.9953 9.04992C11.9859 9.09655 11.9626 9.13901 11.9286 9.17139ZM9.95087 4.78795C9.90765 4.7407 9.85542 4.70307 9.79743 4.67745C9.73944 4.65184 9.67694 4.63875 9.61381 4.63901H0.238646C0.192598 4.63573 0.146693 4.64719 0.107255 4.67179C0.0678148 4.6964 0.0367773 4.73298 0.0184176 4.77644C5.81122e-05 4.81991 -0.00472166 4.86817 0.00473699 4.91455C0.0141954 4.96092 0.037427 5.00315 0.0712323 5.03542L2.04672 7.21224C2.08993 7.25949 2.14214 7.2971 2.20014 7.32271C2.25813 7.34835 2.32063 7.36144 2.38378 7.36119H11.7589C11.8052 7.36499 11.8514 7.35392 11.8912 7.3295C11.9311 7.30509 11.9625 7.26854 11.9811 7.22494C11.9998 7.18133 12.0048 7.13285 11.9953 7.08624C11.9859 7.03961 11.9626 6.99715 11.9286 6.96477L9.95087 4.78795ZM0.238646 3.22521H9.61381C9.67707 3.22503 9.73964 3.21151 9.79763 3.1855C9.8556 3.1595 9.90777 3.12153 9.95087 3.07398L11.9286 0.897147C11.9626 0.864765 11.9859 0.82231 11.9953 0.775685C12.0048 0.729058 11.9998 0.680576 11.9811 0.636979C11.9625 0.593381 11.9311 0.556833 11.8912 0.532416C11.8514 0.507999 11.8052 0.496925 11.7589 0.500734H2.38378C2.32072 0.501014 2.25837 0.514348 2.20045 0.53994C2.14255 0.565532 2.09025 0.602855 2.04672 0.649675L0.0712323 2.8288C0.037427 2.86106 0.0141954 2.90329 0.00473699 2.94965C-0.00472166 2.99603 5.81122e-05 3.04428 0.0184176 3.08775C0.0367773 3.13122 0.0678148 3.16779 0.107255 3.1924C0.146693 3.21703 0.192598 3.22849 0.238646 3.22521Z" fill="url(#paint0_linear_534_494)"/>
<defs>
<linearGradient id="paint0_linear_534_494" x1="1.01991" y1="11.7607" x2="11.1416" y2="0.647037" gradientUnits="userSpaceOnUse">
<stop offset="0.08" stop-color="#9945FF"/>
<stop offset="0.3" stop-color="#8752F3"/>
<stop offset="0.5" stop-color="#5497D5"/>
<stop offset="0.6" stop-color="#43B4CA"/>
<stop offset="0.72" stop-color="#28E0B9"/>
<stop offset="0.97" stop-color="#19FB9B"/>
</linearGradient>
</defs>
</svg>
